<svg width="40" height="40" viewBox="0 0 40 40" fill="none" xmlns="http://www.w3.org/2000/svg">
<g id="icons" clip-path="url(#clip0_38_622)">
<path id="Vector" d="M18.0584 36.9985H7.72636C7.59376 37.0011 7.4673 37.0546 7.37352 37.1479C7.27974 37.2411 7.22592 37.3669 7.22334 37.4987V39.4997C7.22334 39.6324 7.27633 39.7597 7.37067 39.8535C7.465 39.9473 7.59295 40 7.72636 40H18.0584C18.1918 40 18.3197 39.9473 18.414 39.8535C18.5084 39.7597 18.5614 39.6324 18.5614 39.4997V37.4987C18.5614 37.3661 18.5084 37.2388 18.414 37.145C18.3197 37.0512 18.1918 36.9985 18.0584 36.9985ZM32.2737 36.9985H21.9416C21.8082 36.9985 21.6803 37.0512 21.586 37.145C21.4916 37.2388 21.4386 37.3661 21.4386 37.4987V39.4997C21.4386 39.6324 21.4916 39.7597 21.586 39.8535C21.6803 39.9473 21.8082 40 21.9416 40H32.2737C32.4071 40 32.535 39.9473 32.6293 39.8535C32.7237 39.7597 32.7767 39.6324 32.7767 39.4997V37.4987C32.7741 37.3669 32.7203 37.2411 32.6265 37.1479C32.5327 37.0546 32.4063 37.0011 32.2737 36.9985Z" fill="#DB9E30"/>
<path id="Vector_2" d="M12.4549 18.009H27.5454C27.9456 18.009 28.3295 17.8509 28.6125 17.5694C28.8955 17.288 29.0545 16.9063 29.0545 16.5083V6.49325C29.0545 6.09523 28.8955 5.71351 28.6125 5.43207C28.3295 5.15062 27.9456 4.9925 27.5454 4.9925C27.1452 4.9925 26.7613 5.15062 26.4783 5.43207C26.1953 5.71351 26.0364 6.09523 26.0364 6.49325V14.9975H24.0243V6.49325C24.0243 6.09523 23.8653 5.71351 23.5823 5.43207C23.2993 5.15062 22.9154 4.9925 22.5152 4.9925C22.115 4.9925 21.7312 5.15062 21.4482 5.43207C21.1651 5.71351 21.0062 6.09523 21.0062 6.49325V14.9975H18.9941V6.49325C18.9941 6.09523 18.8351 5.71351 18.5521 5.43207C18.2691 5.15062 17.8853 4.9925 17.485 4.9925H12.4549C12.0546 4.9925 11.6708 5.15062 11.3878 5.43207C11.1048 5.71351 10.9458 6.09523 10.9458 6.49325C10.9458 6.89128 11.1048 7.27299 11.3878 7.55444C11.6708 7.83588 12.0546 7.994 12.4549 7.994H15.976V9.995H12.4549C12.0546 9.995 11.6708 10.1531 11.3878 10.4346C11.1048 10.716 10.9458 11.0977 10.9458 11.4958V16.4983C10.9445 16.6962 10.9825 16.8924 11.0578 17.0756C11.133 17.2589 11.244 17.4255 11.3842 17.5659C11.5245 17.7063 11.6913 17.8178 11.875 17.8938C12.0588 17.9699 12.2558 18.009 12.4549 18.009ZM13.9639 13.0065H15.976V15.0075H13.9639V13.0065ZM12.4549 3.0015H27.5454C27.9456 3.0015 28.3295 2.8434 28.6125 2.56195C28.8955 2.2805 29.0545 1.89877 29.0545 1.50075C29.0545 1.10273 28.8955 0.721011 28.6125 0.439566C28.3295 0.158121 27.9456 0 27.5454 0H12.4549C12.0546 0 11.6708 0.158121 11.3878 0.439566C11.1048 0.721011 10.9458 1.10273 10.9458 1.50075C10.9458 1.89877 11.1048 2.2805 11.3878 2.56195C11.6708 2.8434 12.0546 3.0015 12.4549 3.0015ZM11.4991 21.5008C11.2688 21.2715 10.9926 21.093 10.6884 20.9768C10.3842 20.8607 10.0588 20.8094 9.73344 20.8264C9.40803 20.8434 9.08986 20.9282 8.79957 21.0754C8.50927 21.2226 8.25335 21.4289 8.04842 21.6808C7.69116 22.1497 7.51942 22.7327 7.56578 23.3192C7.61215 23.9057 7.87338 24.4548 8.29993 24.8624L10.8553 27.4037C11.0981 27.6438 11.235 27.9701 11.236 28.3106C11.2369 28.6512 11.1018 28.9781 10.8603 29.2196C10.6188 29.4611 10.2908 29.5973 9.94835 29.5982C9.60592 29.5991 9.27715 29.4648 9.03434 29.2246L6.54943 26.7534C5.60908 25.822 5.05899 24.5706 5.0102 23.2516V17.2486C5.0107 16.8979 4.93703 16.551 4.79398 16.2305C4.65093 15.9099 4.44169 15.6228 4.17985 15.3879C3.91801 15.153 3.60943 14.9755 3.27412 14.8668C2.93881 14.7582 2.58427 14.7209 2.23353 14.7574C1.59907 14.8454 1.01917 15.162 0.6038 15.647C0.188427 16.132 -0.0335259 16.7518 -0.0199838 17.3887V23.5018C-0.0185503 24.9197 0.487527 26.2913 1.40859 27.3737L7.05245 34.027C7.10045 34.0814 7.15913 34.1254 7.22487 34.1564C7.29062 34.1873 7.36203 34.2046 7.43473 34.2071H17.7868C17.9202 34.2071 18.0482 34.1544 18.1426 34.0606C18.2369 33.9668 18.2899 33.8396 18.2899 33.7069V30.7054C18.2672 29.122 17.6163 27.6116 16.479 26.5033L11.4991 21.5008ZM37.7466 14.7674C37.3959 14.7309 37.0413 14.7682 36.706 14.8768C36.3707 14.9855 36.0621 15.163 35.8003 15.3979C35.5384 15.6329 35.3292 15.9199 35.1862 16.2405C35.0431 16.561 34.9695 16.9079 34.97 17.2586V23.2616C34.9212 24.5806 34.3711 25.832 33.4307 26.7634L30.9458 29.2346C30.703 29.4748 30.3742 29.6091 30.0318 29.6082C29.6894 29.6073 29.3613 29.4711 29.1199 29.2296C28.8784 28.9882 28.7432 28.6612 28.7442 28.3206C28.7451 27.9801 28.8821 27.6539 29.1249 27.4137L31.6802 24.8724C32.1067 24.4648 32.368 23.9157 32.4143 23.3292C32.4607 22.7427 32.289 22.1597 31.9317 21.6909C31.7278 21.4493 31.4763 21.2517 31.1928 21.1104C30.9092 20.9691 30.5996 20.887 30.2829 20.8692C29.9662 20.8514 29.6492 20.8982 29.3515 21.0069C29.0537 21.1155 28.7814 21.2836 28.5514 21.5008L23.5213 26.5033C22.3889 27.628 21.752 29.1538 21.7506 30.7454V33.7469C21.7506 33.8795 21.8036 34.0068 21.898 34.1006C21.9923 34.1944 22.1202 34.2471 22.2536 34.2471H32.5756C32.6483 34.2446 32.7197 34.2274 32.7855 34.1964C32.8512 34.1654 32.9099 34.1214 32.9579 34.067L38.6017 27.4137C39.5228 26.3314 40.0289 24.9597 40.0303 23.5418V17.3787C40.048 16.7338 39.8241 16.1054 39.4021 15.6155C38.9801 15.1255 38.3901 14.809 37.7466 14.7274V14.7674Z" fill="#DB9E30"/>
</g>
<defs>
<clipPath id="clip0_38_622">
<rect width="40" height="40" fill="white"/>
</clipPath>
</defs>
</svg>
