<svg width="36" height="40" viewBox="0 0 36 40" fill="none" xmlns="http://www.w3.org/2000/svg">
<g id="icons" clip-path="url(#clip0_38_633)">
<path id="Vector" d="M33.4969 35.3765H6.18695C5.77673 35.3765 5.38331 35.2141 5.09324 34.9251C4.80317 34.636 4.64022 34.244 4.64022 33.8353C4.64022 33.4265 4.80317 33.0345 5.09324 32.7455C5.38331 32.4565 5.77673 32.2941 6.18695 32.2941H28.9393C29.2525 32.2941 29.5528 32.1702 29.7742 31.9495C29.9957 31.7289 30.12 31.4297 30.12 31.1176V1.17647C30.12 0.864451 29.9957 0.56521 29.7742 0.344579C29.5528 0.123948 29.2525 0 28.9393 0H4.72286C3.47028 0 2.26902 0.495793 1.38331 1.37832C0.4976 2.26084 0 3.4578 0 4.70588V35.2941C0 36.5422 0.4976 37.7392 1.38331 38.6217C2.26902 39.5042 3.47028 40 4.72286 40H33.4969C33.8382 40.0645 34.1896 40.0531 34.526 39.9668C34.8623 39.8804 35.1755 39.7211 35.443 39.5004C35.7105 39.2796 35.9259 39.0027 36.0737 38.6895C36.2215 38.3762 36.2982 38.0344 36.2982 37.6882C36.2982 37.3421 36.2215 37.0002 36.0737 36.687C35.9259 36.3738 35.7105 36.0969 35.443 35.8761C35.1755 35.6553 34.8623 35.4961 34.526 35.4097C34.1896 35.3234 33.8382 35.312 33.4969 35.3765ZM9.3867 12.1765V9.75294C9.3867 5.48235 14.9242 5.51765 16.471 3.48235C16.5134 3.42168 16.5699 3.37212 16.6357 3.3379C16.7015 3.30367 16.7746 3.28581 16.8488 3.28581C16.923 3.28581 16.9961 3.30367 17.0619 3.3379C17.1277 3.37212 17.1842 3.42168 17.2266 3.48235C18.738 5.51765 24.3109 5.48235 24.3109 9.75294V12.1765C24.9435 12.4766 25.4778 12.9492 25.8519 13.5395C26.2259 14.1298 26.4245 14.8136 26.4245 15.5118C26.4245 16.2099 26.2259 16.8937 25.8519 17.484C25.4778 18.0743 24.9435 18.5469 24.3109 18.8471V21.2823C24.3109 25.5412 18.7616 25.5177 17.2266 27.5412C17.1861 27.6043 17.1302 27.6563 17.0641 27.6923C16.9981 27.7283 16.9241 27.7471 16.8488 27.7471C16.7735 27.7471 16.6995 27.7283 16.6335 27.6923C16.5675 27.6563 16.5116 27.6043 16.471 27.5412C14.9478 25.5177 9.3867 25.5412 9.3867 21.2823V18.8471C8.75027 18.5503 8.2119 18.079 7.83476 17.4882C7.45761 16.8975 7.2573 16.2119 7.2573 15.5118C7.2573 14.8116 7.45761 14.126 7.83476 13.5353C8.2119 12.9445 8.75027 12.4732 9.3867 12.1765Z" fill="#DB9E30"/>
<path id="Vector_2" d="M18.9741 14.7882C19.266 14.7882 19.5514 14.702 19.7941 14.5404C20.0368 14.3788 20.226 14.1491 20.3377 13.8804C20.4494 13.6117 20.4786 13.316 20.4216 13.0307C20.3647 12.7455 20.2241 12.4835 20.0177 12.2778C19.8113 12.0721 19.5483 11.9321 19.262 11.8753C18.9757 11.8186 18.679 11.8477 18.4093 11.959C18.1396 12.0703 17.9091 12.2588 17.7469 12.5006C17.5848 12.7425 17.4982 13.0268 17.4982 13.3176C17.4982 13.7077 17.6537 14.0817 17.9305 14.3575C18.2073 14.6333 18.5827 14.7882 18.9741 14.7882ZM34.5123 1.61177C34.1209 1.61177 33.7455 1.7667 33.4687 2.04249C33.1919 2.31828 33.0364 2.69233 33.0364 3.08236V30.7529C33.0364 31.143 33.1919 31.517 33.4687 31.7928C33.7455 32.0686 34.1209 32.2235 34.5123 32.2235C34.9037 32.2235 35.2791 32.0686 35.5559 31.7928C35.8327 31.517 35.9882 31.143 35.9882 30.7529V3.08236C35.9882 2.69233 35.8327 2.31828 35.5559 2.04249C35.2791 1.7667 34.9037 1.61177 34.5123 1.61177ZM22.1266 15.2941C21.8692 15.8362 21.4875 16.3103 21.0122 16.6781C20.537 17.046 19.9816 17.2974 19.3908 17.4119C18.8001 17.5264 18.1906 17.5009 17.6116 17.3374C17.0326 17.1738 16.5003 16.8769 16.0577 16.4706C15.6764 16.1207 15.37 15.6977 15.1568 15.2269C14.9436 14.7561 14.828 14.2473 14.8169 13.7309C14.8059 13.2146 14.8997 12.7013 15.0926 12.2219C15.2856 11.7425 15.5737 11.3069 15.9397 10.9412C16.2482 10.6348 16.6078 10.384 17.0023 10.2C17.0663 10.1731 17.1187 10.1246 17.1503 10.063C17.1819 10.0015 17.1908 9.93075 17.1753 9.86333C17.1598 9.79591 17.1209 9.73609 17.0655 9.69439C17.0101 9.65268 16.9418 9.63176 16.8724 9.6353C16.0602 9.62236 15.254 9.7766 14.5043 10.0883C13.7547 10.4001 13.0776 10.8626 12.5156 11.4471C11.4196 12.5625 10.8132 14.0661 10.8298 15.6271C10.8464 17.1881 11.4847 18.6785 12.6042 19.7706C13.7236 20.8627 15.2327 21.4669 16.7993 21.4503C18.3659 21.4338 19.8617 20.7978 20.9577 19.6824C21.5191 19.1249 21.9621 18.4605 22.2603 17.7289C22.5585 16.9972 22.7058 16.2132 22.6934 15.4235C22.6969 15.3545 22.6759 15.2863 22.6341 15.2311C22.5922 15.176 22.5322 15.1372 22.4645 15.1218C22.3968 15.1063 22.3259 15.1152 22.2641 15.1467C22.2023 15.1782 22.1536 15.2304 22.1266 15.2941Z" fill="#DB9E30"/>
</g>
<defs>
<clipPath id="clip0_38_633">
<rect width="36" height="40" fill="white"/>
</clipPath>
</defs>
</svg>
