<svg width="33" height="42" viewBox="0 0 33 42" fill="none" xmlns="http://www.w3.org/2000/svg">
<g id="icons" clip-path="url(#clip0_38_579)">
<path id="Vector" d="M28.3 25.02V20.5C28.3 13.58 19.3 13.63 16.89 10.34C18.1496 10.1953 19.3122 9.59276 20.1566 8.64693C21.0011 7.7011 21.4685 6.47791 21.47 5.20998C21.4615 4.98203 21.4381 4.75489 21.4 4.52999C21.2777 5.21753 20.9693 5.85841 20.5082 6.38292C20.0472 6.90744 19.4512 7.29554 18.785 7.50502C18.1188 7.71451 17.4079 7.73737 16.7297 7.57113C16.0514 7.40488 15.4317 7.05589 14.9379 6.56209C14.4441 6.06829 14.0951 5.44858 13.9289 4.77031C13.7626 4.09205 13.7855 3.38119 13.995 2.71502C14.2045 2.04884 14.5926 1.45282 15.1171 0.99178C15.6416 0.530735 16.2825 0.222304 16.97 0.0999949C16.7452 0.0613294 16.518 0.0379352 16.29 0.0299876C14.963 0.0182507 13.6823 0.517256 12.713 1.42369C11.7437 2.33013 11.1601 3.5746 11.083 4.89943C11.0059 6.22427 11.4412 7.52801 12.2988 8.54076C13.1564 9.55351 14.3706 10.1977 15.69 10.34C13.24 13.63 4.28 13.58 4.28 20.5V25.04C3.13921 25.0763 2.05718 25.5545 1.26233 26.3736C0.467479 27.1927 0.0220052 28.2886 0.019989 29.43V41.5C0.019989 41.6326 0.0726747 41.7598 0.166443 41.8535C0.260211 41.9473 0.387381 42 0.519989 42H32.08C32.2126 42 32.3398 41.9473 32.4336 41.8535C32.5273 41.7598 32.58 41.6326 32.58 41.5V29.41C32.5778 28.2653 32.1296 27.1664 31.3305 26.3468C30.5314 25.5271 29.4443 25.0512 28.3 25.02ZM22.23 37.02C22.23 37.0826 22.2175 37.1445 22.1933 37.2022C22.1691 37.2599 22.1335 37.3121 22.0888 37.3559C22.0441 37.3997 21.9911 37.4341 21.9329 37.4571C21.8747 37.4801 21.8126 37.4913 21.75 37.49H10.78C10.7174 37.4913 10.6553 37.4801 10.5971 37.4571C10.5389 37.4341 10.4859 37.3997 10.4412 37.3559C10.3965 37.3121 10.3609 37.2599 10.3367 37.2022C10.3125 37.1445 10.3 37.0826 10.3 37.02V30.22C10.3 26.79 14.74 26.82 15.95 25.22C15.9829 25.1705 16.0274 25.1299 16.0798 25.1018C16.1321 25.0737 16.1906 25.059 16.25 25.059C16.3094 25.059 16.3679 25.0737 16.4202 25.1018C16.4726 25.1299 16.5171 25.1705 16.55 25.22C17.76 26.85 22.2 26.82 22.2 30.22L22.23 37.02Z" fill="#DB9E30"/>
<path id="Vector_2" d="M16.86 3.72C16.8773 3.73878 16.8907 3.76086 16.8993 3.78491C16.9079 3.80897 16.9115 3.83449 16.91 3.85999L16.73 4.85999C16.7273 4.88965 16.7324 4.91951 16.7449 4.94656C16.7574 4.97361 16.7767 4.99691 16.801 5.01413C16.8253 5.03135 16.8537 5.04186 16.8834 5.04465C16.913 5.04743 16.9429 5.04239 16.97 5.03L17.88 4.54999C17.9024 4.53576 17.9284 4.52823 17.955 4.52823C17.9815 4.52823 18.0076 4.53576 18.03 4.54999L18.93 5.03C18.9571 5.04239 18.9869 5.04743 19.0166 5.04465C19.0463 5.04186 19.0747 5.03135 19.099 5.01413C19.1233 4.99691 19.1426 4.97361 19.1551 4.94656C19.1676 4.91951 19.1727 4.88965 19.17 4.85999L18.99 3.85999C18.9885 3.83449 18.9921 3.80897 19.0007 3.78491C19.0093 3.76086 19.0227 3.73878 19.04 3.72L19.78 3C19.8006 2.97897 19.8149 2.95267 19.8215 2.92401C19.8281 2.89535 19.8267 2.86543 19.8174 2.83752C19.8081 2.80962 19.7913 2.78484 19.7688 2.76587C19.7463 2.7469 19.7191 2.73449 19.69 2.73001L18.69 2.57999C18.6642 2.57593 18.6397 2.56562 18.6188 2.54993C18.5979 2.53424 18.5811 2.51366 18.57 2.48999L18.11 1.57001C18.0991 1.54171 18.0799 1.51738 18.0549 1.50021C18.0299 1.48305 18.0003 1.47385 17.97 1.47385C17.9397 1.47385 17.9101 1.48305 17.8851 1.50021C17.8601 1.51738 17.8409 1.54171 17.83 1.57001L17.37 2.48999C17.3589 2.51366 17.3421 2.53424 17.3212 2.54993C17.3003 2.56562 17.2758 2.57593 17.25 2.57999L16.25 2.73001C16.2209 2.73449 16.1936 2.7469 16.1712 2.76587C16.1487 2.78484 16.1319 2.80962 16.1226 2.83752C16.1133 2.86543 16.1119 2.89535 16.1185 2.92401C16.1251 2.95267 16.1394 2.97897 16.16 3L16.86 3.72ZM18.28 32.17H14.28C13.8822 32.17 13.5006 32.328 13.2193 32.6093C12.938 32.8906 12.78 33.2722 12.78 33.67C12.78 34.0678 12.938 34.4493 13.2193 34.7307C13.5006 35.012 13.8822 35.17 14.28 35.17H18.28C18.6778 35.17 19.0594 35.012 19.3407 34.7307C19.622 34.4493 19.78 34.0678 19.78 33.67C19.78 33.2722 19.622 32.8906 19.3407 32.6093C19.0594 32.328 18.6778 32.17 18.28 32.17Z" fill="#DB9E30"/>
</g>
<defs>
<clipPath id="clip0_38_579">
<rect width="32.55" height="42" fill="white"/>
</clipPath>
</defs>
</svg>
