<svg width="35" height="43" viewBox="0 0 35 43" fill="none" xmlns="http://www.w3.org/2000/svg">
<g id="icons" clip-path="url(#clip0_38_600)">
<path id="Vector" d="M34.6161 16.1024L31.0823 8.1813C30.9051 7.78035 30.6154 7.43965 30.2486 7.20059C29.8818 6.96154 29.4537 6.83442 29.0161 6.83472H25.2226C24.8641 8.44741 24.0114 9.90738 22.7839 11.0102H25.4032C25.7775 11.0102 26.1365 11.1593 26.4012 11.4245C26.6658 11.6898 26.8145 12.0496 26.8145 12.4247C26.8145 12.7999 26.6658 13.1596 26.4012 13.4249C26.1365 13.6902 25.7775 13.8392 25.4032 13.8392H9.59677C9.22248 13.8392 8.86351 13.6902 8.59884 13.4249C8.33418 13.1596 8.18548 12.7999 8.18548 12.4247C8.18548 12.0496 8.33418 11.6898 8.59884 11.4245C8.86351 11.1593 9.22248 11.0102 9.59677 11.0102H12.2161C10.9886 9.90738 10.1359 8.44741 9.77742 6.83472H5.98387C5.54634 6.83442 5.11814 6.96154 4.75134 7.20059C4.38454 7.43965 4.09494 7.78035 3.91774 8.1813L0.383867 16.1024C0.132584 16.6808 0.00195643 17.3046 0 17.9355V20.9342C0 21.0843 0.0594838 21.2282 0.165351 21.3343C0.271218 21.4404 0.414797 21.5 0.564516 21.5H34.4355C34.5852 21.5 34.7288 21.4404 34.8346 21.3343C34.9405 21.2282 35 21.0843 35 20.9342V17.9355C34.998 17.3046 34.8674 16.6808 34.6161 16.1024Z" fill="#DB9E30"/>
<path id="Vector_2" d="M17.5 10.1842C18.5049 10.1842 19.4871 9.88555 20.3226 9.32603C21.1582 8.7665 21.8094 7.97123 22.1939 7.04077C22.5785 6.11031 22.6791 5.08646 22.483 4.09869C22.287 3.11092 21.8031 2.20359 21.0926 1.49144C20.382 0.779301 19.4767 0.294326 18.4912 0.0978465C17.5056 -0.0986335 16.4841 0.00220391 15.5557 0.387613C14.6274 0.773023 13.8339 1.42569 13.2756 2.26309C12.7173 3.10048 12.4194 4.08498 12.4194 5.0921C12.4194 6.44261 12.9546 7.7378 13.9074 8.69276C14.8603 9.64771 16.1525 10.1842 17.5 10.1842ZM34.4355 24.8947H0.564516C0.414797 24.8947 0.271218 24.9544 0.165351 25.0605C0.0594838 25.1666 0 25.3105 0 25.4605V40.7368C0 41.3371 0.237901 41.9127 0.66137 42.3371C1.08484 42.7616 1.65919 43 2.25806 43H32.7419C33.3408 43 33.9152 42.7616 34.3386 42.3371C34.7621 41.9127 35 41.3371 35 40.7368V25.4605C35 25.3105 34.9405 25.1666 34.8346 25.0605C34.7288 24.9544 34.5852 24.8947 34.4355 24.8947ZM19.1935 37.9079C18.6998 38.2075 18.1336 38.3658 17.5564 38.3658C16.9793 38.3658 16.4131 38.2075 15.9194 37.9079C14.2258 36.7763 12.0129 34.9771 12.0129 32.5781C11.9758 32.1945 12.0157 31.8073 12.1303 31.4394C12.245 31.0715 12.432 30.7303 12.6804 30.436C12.9287 30.1417 13.2334 29.9003 13.5764 29.726C13.9194 29.5517 14.2938 29.448 14.6774 29.421C15.5008 29.377 16.3095 29.6526 16.9355 30.1905C17.1366 30.3541 17.3878 30.4433 17.6468 30.4433C17.9058 30.4433 18.1569 30.3541 18.3581 30.1905C18.9256 29.6917 19.6473 29.404 20.4016 29.3758C21.1557 29.4394 21.8545 29.7979 22.3468 30.374C22.8391 30.95 23.0854 31.6971 23.0323 32.4537C22.9758 35.1468 20.8532 36.9121 19.1935 37.9079Z" fill="#DB9E30"/>
</g>
<defs>
<clipPath id="clip0_38_600">
<rect width="35" height="43" fill="white"/>
</clipPath>
</defs>
</svg>
