<svg width="91" height="91" viewBox="0 0 91 91" fill="none" xmlns="http://www.w3.org/2000/svg">
<path d="M90.9171 42.8092C90.6701 52.887 86.6676 62.5099 79.6933 69.7938C72.7189 77.0778 63.2749 81.4982 53.2103 82.1897C43.1456 82.8812 33.185 79.794 25.2786 73.5325C17.3722 67.271 12.0893 58.2861 10.4642 48.3369C13.0706 56.9444 18.6858 64.3294 26.286 69.1455C33.8863 73.9617 42.9654 75.8883 51.8685 74.5742C60.7716 73.2601 68.9056 68.7928 74.7878 61.9867C80.67 55.1805 83.9087 46.4887 83.9134 37.4958C83.9134 36.7409 83.8841 35.9909 83.8403 35.2506C83.6878 41.9097 81.5327 48.3686 77.6553 53.7867V43.3936H78.3669C78.4962 43.3936 78.6202 43.3423 78.7116 43.251C78.803 43.1597 78.8543 43.0358 78.8543 42.9066V42.7946C78.8543 42.6654 78.803 42.5415 78.7116 42.4502C78.6202 42.3589 78.4962 42.3076 78.3669 42.3076H71.5825C71.4532 42.3076 71.3293 42.3589 71.2379 42.4502C71.1465 42.5415 71.0951 42.6654 71.0951 42.7946V42.9066C71.0951 43.0358 71.1465 43.1597 71.2379 43.251C71.3293 43.3423 71.4532 43.3936 71.5825 43.3936H72.2941V55.238H70.2714V51.4392H70.7588C70.8713 51.4392 70.9791 51.3946 71.0586 51.3151C71.1382 51.2357 71.1828 51.1279 71.1828 51.0155C71.1828 50.9031 71.1382 50.7954 71.0586 50.7159C70.9791 50.6364 70.8713 50.5918 70.7588 50.5918H65.7387C65.6263 50.5918 65.5184 50.6364 65.4389 50.7159C65.3594 50.7954 65.3147 50.9031 65.3147 51.0155C65.3147 51.1279 65.3594 51.2357 65.4389 51.3151C65.5184 51.3946 65.6263 51.4392 65.7387 51.4392H66.2261V55.238H65.6656V53.2607H60.3385V51.0106H57.1851C59.9145 48.7314 61.4546 45.2394 60.6845 40.9731C59.5197 34.5201 51.2146 32.4064 49.2066 27.3609V25.4615C49.2997 25.3917 49.3755 25.3013 49.4279 25.1974C49.4803 25.0934 49.508 24.9788 49.5087 24.8624C49.508 24.7468 49.4803 24.6329 49.4278 24.5297C49.3754 24.4266 49.2996 24.3371 49.2066 24.2683C49.3746 24.185 49.516 24.0566 49.615 23.8974C49.714 23.7383 49.7667 23.5547 49.7671 23.3673C49.7703 23.154 49.7033 22.9456 49.5765 22.7741C49.4498 22.6025 49.2701 22.4773 49.0652 22.4176V21.3072C49.5481 21.2944 50.0203 21.1622 50.4396 20.9226C50.8589 20.6829 51.2122 20.3432 51.468 19.9338C51.1666 20.2152 50.801 20.4187 50.4029 20.5269C50.0048 20.635 49.5864 20.6444 49.1839 20.5543C48.7813 20.4641 48.4069 20.2772 48.0931 20.0097C47.7793 19.7421 47.5356 19.4021 47.3831 19.0191C47.2306 18.6361 47.174 18.2217 47.2182 17.8119C47.2624 17.402 47.406 17.0092 47.6366 16.6674C47.8672 16.3256 48.1778 16.0452 48.5414 15.8506C48.905 15.656 49.3107 15.553 49.7232 15.5506H49.7817C49.5211 15.4799 49.2524 15.4439 48.9824 15.4435C48.2415 15.4323 47.5241 15.7025 46.975 16.1996C46.4258 16.6966 46.086 17.3834 46.0241 18.1212C45.9622 18.8589 46.1829 19.5927 46.6415 20.1741C47.1002 20.7556 47.7626 21.1414 48.495 21.2536V22.3932C48.2778 22.4456 48.0852 22.571 47.9495 22.7483C47.8137 22.9256 47.743 23.1441 47.7493 23.3673C47.7497 23.5547 47.8023 23.7383 47.9013 23.8974C48.0003 24.0566 48.1418 24.185 48.3098 24.2683C48.2161 24.3366 48.14 24.4259 48.0875 24.5292C48.0349 24.6324 48.0076 24.7466 48.0076 24.8624C48.0074 24.9891 48.0396 25.1137 48.101 25.2244C48.1624 25.3352 48.251 25.4285 48.3585 25.4956V27.2342C46.409 32.3723 37.9869 34.4616 36.8074 40.9731C36.0374 45.2394 37.5775 48.7314 40.3118 51.0106H37.1535V53.2607H34.429V51.4392H34.9164C35.0288 51.4392 35.1367 51.3946 35.2162 51.3151C35.2957 51.2357 35.3404 51.1279 35.3404 51.0155C35.3404 50.9031 35.2957 50.7954 35.2162 50.7159C35.1367 50.6364 35.0288 50.5918 34.9164 50.5918H29.8817C29.7692 50.5918 29.6614 50.6364 29.5819 50.7159C29.5023 50.7954 29.4577 50.9031 29.4577 51.0155C29.4577 51.1279 29.5023 51.2357 29.5819 51.3151C29.6614 51.3946 29.7692 51.4392 29.8817 51.4392H30.3691V55.238H28.595V36.5656H29.443C29.6343 36.5656 29.8178 36.4896 29.9531 36.3544C30.0884 36.2193 30.1644 36.0359 30.1644 35.8448C30.1644 35.6536 30.0884 35.4703 29.9531 35.3351C29.8178 35.1999 29.6343 35.124 29.443 35.124H20.8163C20.625 35.124 20.4415 35.1999 20.3062 35.3351C20.1709 35.4703 20.095 35.6536 20.095 35.8448C20.095 36.0359 20.1709 36.2193 20.3062 36.3544C20.4415 36.4896 20.625 36.5656 20.8163 36.5656H21.6643V51.3418C19.1197 47.0155 17.5839 42.1715 17.171 37.1703C16.7582 32.169 17.4789 27.1391 19.2797 22.4546C21.0804 17.7701 23.9148 13.5514 27.5722 10.1124C31.2295 6.67344 35.6156 4.10256 40.4044 2.59096C47.0085 0.909191 53.9293 0.909191 60.5334 2.59096C59.4839 2.22082 58.4182 1.89614 57.3362 1.61691C53.7881 0.53548 50.0989 -0.0127456 46.3895 -0.00975344C45.4147 -0.00975344 44.4399 0.0292285 43.4652 0.102282C34.5607 0.499151 25.9689 3.50056 18.7565 8.7339C11.5441 13.9672 6.02875 21.202 2.89508 29.5401C-0.2386 37.8781 -0.852549 46.9522 1.12944 55.6359C3.11144 64.3196 7.60208 72.2303 14.0439 78.3861C20.4857 84.5419 28.595 88.6716 37.3649 90.2626C46.1349 91.8535 55.1794 90.8356 63.3755 87.3352C71.5716 83.8348 78.5584 78.0061 83.4686 70.5727C88.3787 63.1393 90.9958 54.4285 90.9951 45.5219C91 44.616 90.9707 43.7102 90.9171 42.8092Z" fill="#DB9E30"/>
</svg>
