<svg width="35" height="35" viewBox="0 0 35 35" fill="none" xmlns="http://www.w3.org/2000/svg">
<g id="phone-call 1" clip-path="url(#clip0_25_155)">
<g id="Group">
<g id="Group_2">
<g id="Group_3">
<path id="Vector" d="M34.9855 28.8067C34.9225 28.2299 34.6341 27.7147 34.1735 27.3577L27.4286 22.1444C26.2821 21.2596 24.7352 21.1546 23.4837 21.8784L22.2433 22.5952C21.4873 23.0305 20.5522 22.9731 19.8606 22.4384C18.8582 21.667 17.3617 20.4462 15.9295 19.0127C14.5086 17.5903 13.3102 16.1219 12.5557 15.1405C12.0265 14.4532 11.9677 13.5194 12.4045 12.762L13.1212 11.5189C13.845 10.2645 13.7414 8.71477 12.8566 7.57243L7.64183 0.82753C7.28637 0.366996 6.77402 0.0786589 6.19584 0.0142649C5.61766 -0.0529319 5.05349 0.119264 4.60691 0.488812C3.46176 1.43374 1.9904 2.6685 1.47949 3.18085C0.44351 4.21683 0.00115967 5.57341 0.00115967 7.7209C0.00115967 10.2254 4.59856 19.5406 10.1353 24.8463C15.4592 30.404 24.7744 35 27.2817 35C29.4278 35 30.7843 34.5577 31.8175 33.5217C32.3704 32.9701 33.7424 31.3238 34.5095 30.3943C34.8805 29.9462 35.0485 29.3834 34.9855 28.8067ZM33.4316 29.5024C32.1507 31.0549 31.2029 32.1595 30.8291 32.5332C30.2761 33.0876 29.4627 33.6 27.2802 33.6C25.3581 33.6 16.3285 29.2896 11.1236 23.8565C5.71288 18.6697 1.40108 9.64295 1.40108 7.7209C1.40108 5.53841 1.91343 4.72508 2.46926 4.17069C2.8388 3.80107 3.91402 2.87713 5.49871 1.5682C5.63031 1.45903 5.79129 1.40161 5.95932 1.40161C5.98591 1.40161 6.01393 1.40304 6.04053 1.40578C6.23795 1.4282 6.41295 1.52616 6.53469 1.68434L11.7494 8.4278C12.2842 9.12076 12.3472 10.0587 11.9091 10.8189L11.1923 12.062C10.4713 13.3107 10.5707 14.8548 11.4457 15.993C12.2255 17.0079 13.4644 18.5269 14.94 20.0024C16.4253 21.4877 17.9722 22.7519 19.0068 23.547C20.1435 24.4262 21.6905 24.5325 22.9433 23.8088C22.9433 23.8074 22.9433 23.8074 22.9433 23.8074L24.1837 23.0906C24.9425 22.6525 25.8818 22.7182 26.5734 23.2531L33.3169 28.465C33.4737 28.5868 33.5716 28.7632 33.5941 28.9606C33.6163 29.158 33.5589 29.3498 33.4316 29.5024Z" fill="#DB9E30"/>
<path id="Vector_2" d="M24.2888 2.75815C27.993 4.11049 30.8909 7.00836 32.2418 10.7126C32.3453 10.9968 32.6141 11.1732 32.8997 11.1732C32.9795 11.1732 33.0593 11.1592 33.1377 11.1298C33.5018 10.9968 33.6893 10.5964 33.5563 10.2324C32.0654 6.14041 28.8623 2.93602 24.7675 1.44368C24.4091 1.31209 24.0032 1.49966 23.8702 1.86087C23.7372 2.22338 23.9248 2.62512 24.2888 2.75815Z" fill="#DB9E30"/>
<path id="Vector_3" d="M22.3723 8.02326C24.4917 8.78901 26.2122 10.5109 26.9766 12.629C27.0816 12.9146 27.349 13.091 27.636 13.091C27.7158 13.091 27.7956 13.0784 27.874 13.0504C28.238 12.9188 28.4269 12.5184 28.2953 12.1544C27.3896 9.64992 25.3541 7.61304 22.8482 6.70728C22.487 6.57426 22.0838 6.76327 21.9508 7.12728C21.8193 7.49129 22.0083 7.89167 22.3723 8.02326Z" fill="#DB9E30"/>
<path id="Vector_4" d="M20.4586 13.287C21.0452 13.497 21.5043 13.9562 21.7143 14.5441C21.818 14.8311 22.0867 15.0089 22.3737 15.0089C22.4507 15.0089 22.5305 14.9963 22.6089 14.9669C22.9742 14.8367 23.1633 14.4363 23.033 14.0724C22.6817 13.0882 21.9145 12.3211 20.9289 11.9696C20.5664 11.8381 20.166 12.0299 20.0344 12.3924C19.9042 12.7564 20.0932 13.1568 20.4586 13.287Z" fill="#DB9E30"/>
</g>
</g>
</g>
</g>
<defs>
<clipPath id="clip0_25_155">
<rect width="35" height="35" fill="white"/>
</clipPath>
</defs>
</svg>
