<svg width="40" height="42" viewBox="0 0 40 42" fill="none" xmlns="http://www.w3.org/2000/svg">
<g id="icons" clip-path="url(#clip0_38_611)">
<path id="Vector" d="M38.5 39H38V27H38.5C38.8978 27 39.2794 26.842 39.5607 26.5607C39.842 26.2794 40 25.8978 40 25.5C40 25.1022 39.842 24.7206 39.5607 24.4393C39.2794 24.158 38.8978 24 38.5 24H33C32.9958 20.7161 31.7489 17.5554 29.5098 15.1531C27.2708 12.7508 24.2055 11.2849 20.93 11.05L20.35 9.89999C20.3179 9.83459 20.268 9.77952 20.2062 9.741C20.1443 9.70247 20.0729 9.68204 20 9.68204C19.9271 9.68204 19.8557 9.70247 19.7938 9.741C19.732 9.77952 19.6821 9.83459 19.65 9.89999L19.07 11.05C15.7945 11.2849 12.7292 12.7508 10.4902 15.1531C8.25113 17.5554 7.00422 20.7161 7 24H1.5C1.10218 24 0.720643 24.158 0.439339 24.4393C0.158034 24.7206 0 25.1022 0 25.5C0 25.8978 0.158034 26.2794 0.439339 26.5607C0.720643 26.842 1.10218 27 1.5 27H2V39H1.5C1.10218 39 0.720643 39.158 0.439339 39.4393C0.158034 39.7206 0 40.1022 0 40.5C0 40.8978 0.158034 41.2794 0.439339 41.5607C0.720643 41.842 1.10218 42 1.5 42H38.5C38.8978 42 39.2794 41.842 39.5607 41.5607C39.842 41.2794 40 40.8978 40 40.5C40 40.1022 39.842 39.7206 39.5607 39.4393C39.2794 39.158 38.8978 39 38.5 39ZM12.64 38.15C12.64 38.3127 12.5761 38.4689 12.462 38.5849C12.3478 38.7009 12.1927 38.7674 12.03 38.77H6.5C6.41905 38.77 6.3389 38.7539 6.26423 38.7226C6.18956 38.6913 6.12187 38.6455 6.06509 38.5878C6.00831 38.5301 5.96359 38.4617 5.93353 38.3865C5.90347 38.3113 5.88867 38.2309 5.89 38.15V32.58C5.89 30.31 8.34 29.29 9.06 29.04C9.18954 28.9951 9.33046 28.9951 9.46 29.04C10.18 29.29 12.63 30.29 12.63 32.59L12.64 38.15ZM23.37 38.15C23.3713 38.2309 23.3565 38.3113 23.3265 38.3865C23.2964 38.4617 23.2517 38.5301 23.1949 38.5878C23.1381 38.6455 23.0704 38.6913 22.9958 38.7226C22.9211 38.7539 22.841 38.77 22.76 38.77H17.24C17.159 38.77 17.0789 38.7539 17.0042 38.7226C16.9296 38.6913 16.8619 38.6455 16.8051 38.5878C16.7483 38.5301 16.7036 38.4617 16.6735 38.3865C16.6435 38.3113 16.6287 38.2309 16.63 38.15V32.58C16.63 30.31 19.08 29.29 19.8 29.04C19.9295 28.9951 20.0705 28.9951 20.2 29.04C20.92 29.29 23.37 30.29 23.37 32.59V38.15ZM34.1 38.15C34.1013 38.2309 34.0865 38.3113 34.0565 38.3865C34.0264 38.4617 33.9817 38.5301 33.9249 38.5878C33.8681 38.6455 33.8004 38.6913 33.7258 38.7226C33.6511 38.7539 33.571 38.77 33.49 38.77H27.97C27.8073 38.7674 27.6522 38.7009 27.538 38.5849C27.4239 38.4689 27.36 38.3127 27.36 38.15V32.58C27.36 30.31 29.82 29.29 30.54 29.04C30.6661 28.995 30.8039 28.995 30.93 29.04C31.65 29.29 34.1 30.29 34.1 32.59V38.15Z" fill="#DB9E30"/>
<path id="Vector_2" d="M24.55 4.64001C24.2262 4.91874 23.839 5.11373 23.4223 5.20788C23.0056 5.30203 22.5721 5.29245 22.16 5.17998C21.7017 5.05388 21.2871 4.80362 20.9621 4.45681C20.637 4.10999 20.4141 3.6801 20.3178 3.21459C20.2216 2.74909 20.2559 2.26607 20.4169 1.81881C20.5778 1.37155 20.8592 0.977433 21.23 0.679984C21.288 0.631161 21.3301 0.566106 21.3509 0.493155C21.3716 0.420204 21.3701 0.34271 21.3464 0.270652C21.3228 0.198593 21.2781 0.135249 21.2181 0.0887973C21.1582 0.0423456 21.0857 0.0149138 21.01 0.010001C20.1577 -0.049786 19.306 0.13485 18.5549 0.542258C17.8039 0.949666 17.1847 1.56292 16.77 2.30999C16.1494 3.33505 15.9614 4.56466 16.2474 5.72832C16.5334 6.89199 17.2699 7.8944 18.295 8.51501C19.3201 9.13561 20.5497 9.32358 21.7133 9.03759C22.877 8.7516 23.8794 8.01504 24.5 6.98998C24.898 6.39127 25.1451 5.70502 25.22 4.98998C25.2546 4.90264 25.2557 4.80557 25.223 4.71749C25.1902 4.62941 25.126 4.55659 25.0427 4.51308C24.9594 4.46958 24.863 4.45846 24.772 4.48189C24.681 4.50533 24.6019 4.56168 24.55 4.64001Z" fill="#DB9E30"/>
</g>
<defs>
<clipPath id="clip0_38_611">
<rect width="40" height="42" fill="white"/>
</clipPath>
</defs>
</svg>
